<svg xmlns="http://www.w3.org/2000/svg" style="display: none;">
  
    <symbol id="icon-ghost" viewBox="0 0 512 512">
      <path d="m0 0l0 102 307 0 0-102z m0 0l0 307 512 0 0-102-512 0z m0 205l0 307 205 0 0-102-205 0z m0 205l307 0 0 102 205 0 0-102z m307 0l103-410 0 102 102 0 0-102-102 0z"/>
    </symbol>
  
    <symbol id="icon-email" viewBox="0 0 512 512">
      <path d="m512 203l0 227c0 12-4 23-13 32-9 9-20 13-33 14l-420 0c-13 0-23-5-33-14-9-9-13-20-13-32l0-227c9 9 18 18 29 25 69 47 116 79 142 98 11 8 20 15 26 19 7 5 16 9 27 14 12 5 22 7 31 7l2 0c9 0 19-3 31-7 11-5 20-9 27-14 7-5 15-11 26-19 32-23 80-56 142-98 11-8 21-16 29-25z m0-84c0 15-5 29-14 43-9 13-21 25-35 35-71 50-116 81-134 93-1 1-5 4-12 8-6 5-11 9-15 12-4 3-9 6-15 9-6 3-11 6-17 8-5 2-10 3-13 2l-2 0c-4 0-8-1-13-2-5-2-11-5-17-8-6-3-11-7-15-9-4-3-9-7-15-12-7-4-11-7-12-8-18-12-43-29-75-52-33-22-53-36-59-41-12-8-23-19-33-33-10-14-16-27-16-39 0-15 4-27 12-37 8-10 19-15 34-15l420 0c13 0 23 5 32 14 9 8 14 19 14 32z"/>
    </symbol>
  
    <symbol id="icon-sumry" viewBox="0 0 512 512">
      <path d="m444 82c-99-107-267-110-369-6l-1 0c-93 94-99 243-14 345 104 124 296 121 397-7l0 0c78-99 72-240-13-332z m-52 252l-1 3-3 11c-1 6-4 11-7 16l-7 10c-1 1-1 2-2 2l-6 8c-4 4-8 8-13 11l-6 4c-2 1-3 2-5 3l-8 3c-5 3-10 5-16 6l-7 2c-8 2-16 4-23 4l-22 0c0 0-19-1-35-4-20-4-31-8-31-8l-18-6c-4-1-9-3-14-5l-16-6-12-6c-7-3-15-7-21-12l37-60 13 7 17 7c1 1 3 2 4 2l16 6c0 0 1 0 2 1l14 4c1 0 1 0 1 0l26 6c1 0 2 1 3 1l11 1c1 1 4 1 6 1l2 0c3 0 6-1 9-2l5-1c1 0 2-1 4-2l1-1c2-1 5-3 6-5 2-2 4-5 4-7 0-2 0-4-2-6-1-3-3-6-5-8l-1-1c-1-1-2-2-4-4l-5-3c-2 0-4-1-7-2l-3-1c-3-1-5-2-8-2l-12-3c-9-2-17-4-26-6l-3-1-12-3c-11-3-23-9-32-14l-3-2-11-7c-8-5-14-12-20-19l-9-10c-2-4-5-8-6-12-4-9-6-19-7-28l-1-2c0-6 0-11 1-16 1-3 1-8 3-11 2-4 3-8 4-11l1-1c4-11 5-11 9-16 5-8 12-15 19-21l5-3c3-2 8-5 11-6 8-5 10-6 22-8l8-2 16-2c21-2 16-2 46 0l13 1 3 1c9 2 18 3 27 5l12 4 16 5 10 3c5 2 10 4 16 7l1 0c5 2 10 6 15 11l-37 56-21-7-12-4c-4-1-8-2-12-3l-11-3-16-5-10-2c-3-1-8-1-12-1l-3 0c-3 0-6 0-9 1l-6 1c-1 0-2 0-4 1l-4 1c-2 1-5 4-6 6l-2 2c0 2-1 4 0 6l0 3c0 3 0 4 2 7l3 3c1 1 2 3 4 4l6 3c1 1 2 1 4 2l8 2c1 1 2 1 3 1l20 6 22 6c3 1 5 1 8 2l13 5 15 6c4 2 7 4 10 5l12 5c2 1 4 3 6 4l11 8 7 7c5 4 8 8 11 14l5 9c2 5 4 9 5 13l1 7c2 9 2 20 0 29z"/>
    </symbol>
  
    <symbol id="icon-twitter" viewBox="0 0 512 512">
      <path d="m512 97c-19 8-39 14-60 17 22-13 38-34 46-58-20 12-43 20-67 25-19-20-46-33-77-33-58 0-105 47-105 105 0 8 1 16 3 24-87-4-164-46-216-110-9 15-14 34-14 53 0 36 18 68 46 87-17 0-33-5-48-13 0 1 0 1 0 2 0 50 37 93 85 102-9 3-18 4-28 4-6 0-13 0-20-1 14 41 53 72 99 72-36 28-82 45-131 45-9 0-17 0-25-1 47 29 102 47 161 47 193 0 299-160 299-299 0-4 0-9 0-13 20-15 38-34 52-55z"/>
    </symbol>
  
    <symbol id="icon-github" viewBox="0 0 512 512">
      <path d="m475 256c0 48-14 91-42 129-28 38-64 65-108 79-5 1-9 1-11-2-2-2-4-5-4-8l0-61c0-18-4-32-14-40 11-1 20-3 29-5 8-3 17-7 27-12 10-5 17-11 23-19 6-7 11-17 15-29 5-13 7-27 6-43 0-23-8-43-23-59 8-18 7-37-2-58-5-2-13-1-23 3-10 3-19 8-26 12l-11 7c-18-5-36-8-55-8-19 0-37 3-55 8-3-2-7-5-12-8-5-3-13-6-24-11-11-4-19-6-24-3-9 21-9 40-3 58-15 16-22 36-22 59 0 16 2 30 6 42 4 13 9 23 15 30 6 8 13 15 23 19 10 5 18 9 27 12 8 2 18 4 29 5-8 7-12 16-14 29-4 2-8 4-13 5-4 1-10 1-16 1-7 0-13-2-19-6-5-4-11-10-16-18-3-6-8-11-13-15-6-4-11-6-15-7l-5-1c-4 0-7 1-8 2-2 0-2 1-2 3 0 2 1 3 3 4 1 1 2 2 3 3l2 2c4 2 8 5 12 11 5 5 8 10 10 14l2 7c3 7 7 13 13 17 6 5 12 8 19 9 7 2 13 2 20 2 6 0 12 0 16-1l6-1c0 7 0 16 0 25 0 10 1 15 1 16 0 3-1 6-4 8-3 3-7 3-11 2-44-14-80-41-108-79-28-38-42-81-42-129 0-40 10-77 29-110 20-34 47-60 80-80 33-20 70-30 110-30 41 0 78 10 110 30 33 20 60 46 80 80 21 33 30 70 29 110z"/>
    </symbol>
  
    <symbol id="icon-linkedin" viewBox="0 0 512 512">
      <path d="m104 404l66 0 0-198-66 0z m71-260c-1-9-4-18-11-24-7-7-15-10-26-10-11 0-20 3-27 10-8 6-11 15-11 24 0 10 4 18 10 25 7 6 16 10 27 10 11 0 20-4 27-10 7-7 10-15 11-25z m167 260l66 0 0-114c0-29-7-51-21-66-14-15-33-23-56-23-25 0-45 11-59 34l1 0 0-29-66 0c0 12 0 78 0 198l66 0 0-111c0-7 0-13 2-16 2-6 7-12 12-17 6-5 13-7 21-7 23 0 34 15 34 45z m133-285l0 274c0 23-8 42-24 58-16 16-35 24-58 25l-274 0c-23 0-42-9-58-25-16-16-24-36-24-58l0-274c0-23 8-42 24-58 16-16 35-24 58-25l274 0c23 0 42 9 58 25 16 16 24 36 24 58z"/>
    </symbol>
  
</svg>
