<svg xmlns="http://www.w3.org/2000/svg" style="display: none;">
  
    <symbol id="icon-email" viewBox="0 0 512 512">
      <path d="m30 90c-30 0-15 11 0 23l211 173 241-173c15-12 30-23 0-23z m-30 46l0 255c0 16 15 31 27 31l458 0c12 0 27-15 27-31l0-255-271 195z"/>
    </symbol>
  
    <symbol id="icon-ghost" viewBox="0 0 512 512">
      <path d="m1 0l305 0 0 101-305 0z m409 0l102 0 0 101-102 0z m-409 205l511 0 0 102-511 0z m0 205l204 0 0 102-204 0z m306 0l205 0 0 102-205 0z"/>
    </symbol>
  
    <symbol id="icon-github" viewBox="0 0 512 512">
      <path d="m201 402l-10 4c0 1 0 1-1 1l-7 2c-1 0-1 1-2 1l-6 1c-1 0-2 1-2 1l-7 1c-2 0-4 0-5 0l-6-1c-1 0-3 0-4-1l-3 0c0-1 0-1 0-1l-4-1c-1 0-2-1-3-1l-2-2c-1 0-2-1-2-1l-3-2-2-2c-2-1-4-3-5-4l-1-1c0-1-1-2-1-2l-3-4-3-5-3-4-1-1c-1-2-3-3-4-5l-3-3c-1-1-3-2-4-3-1-1-2-2-4-3l0 0c-1-1-2-1-4-2l-1-1-2-1c-1 0-3-1-4-1l-2 0c-1-1-2-1-3-1-3-1-6-1-9 0-1 0-2 0-3 1l0 0c-1 0-2 1-3 1l-2 2 3 8 3 0c1 0 3 1 4 1l0 1c1 0 2 0 2 1l2 2 3 2c1 0 1 1 2 1l1 1c1 1 2 2 3 3l1 1 3 4 1 2c1 1 2 2 3 3l0 1c1 1 1 1 1 2l1 2 3 4 1 2c1 2 1 3 2 5l1 3 3 7 32 23 3 0 9 1 4 0c4 0 9 0 14 0l6-1c1 0 2 0 3 0l5-1c2 0 5-1 7-1l5-2z m55-402c-141 0-256 115-256 256 0 141 115 256 256 256 141 0 256-115 256-256 0-141-115-256-256-256z m152 408c-20 20-43 35-68 46-7 3-13 5-20 7l0-38c0-20-7-35-21-44 9-1 17-2 24-4 7-1 15-4 23-6 8-3 15-7 22-11 6-3 12-9 18-15 6-6 11-13 15-21 4-8 7-17 10-28 2-12 3-24 3-37 0-26-8-48-25-66 8-20 7-42-3-65l-6-1c-4-1-12 1-23 5-11 5-24 11-38 21-20-6-40-8-62-8-21 0-42 3-61 8-9-6-18-11-25-15-8-4-15-7-19-8-5-1-10-2-14-3-4 0-6 0-8 0-1 0-2 1-2 1-9 23-10 45-3 65-16 18-25 40-25 66 0 13 1 25 4 37 2 11 5 20 9 28 4 8 9 15 15 21 6 6 12 12 19 15 6 4 13 8 21 11 9 2 16 5 23 6 8 2 16 3 24 4-13 9-20 24-20 44l0 39c-8-2-15-5-22-8-26-11-49-26-69-46-20-20-35-43-46-68-11-27-17-55-17-84 0-29 6-57 17-84 11-25 26-48 46-68 20-20 43-35 68-46 27-11 55-17 84-17 29 0 57 6 84 17 25 11 48 26 68 46 20 20 35 43 46 68 11 27 17 55 17 84 0 29-6 57-17 84-11 25-26 48-46 68z"/>
    </symbol>
  
    <symbol id="icon-linkedin" viewBox="0 0 512 512">
      <path d="m427 0l-342 0c-47 0-85 38-85 85l0 342c0 47 38 85 85 85l342 0c47 0 85-38 85-85l0-342c0-47-38-85-85-85z m-270 429l-77 0 0-233 77 0z m-38-265l-1 0c-26 0-43-18-43-40 0-23 18-41 44-41 27 0 43 18 43 41 0 22-16 40-43 40z m318 265l-78 0 0-125c0-31-11-53-39-53-21 0-34 15-40 29-2 5-2 12-2 19l0 130-78 0c0 0 1-211 0-233l78 0 0 33c10-16 28-39 69-39 51 0 90 34 90 105z"/>
    </symbol>
  
    <symbol id="icon-twitter" viewBox="0 0 512 512">
      <path d="m512 91c-19 9-39 14-60 17 21-14 38-35 46-61-21 13-43 22-67 27-19-21-46-35-77-35-58 0-105 49-105 110 0 8 1 17 3 25-87-5-165-49-216-115-9 16-14 35-14 55 0 38 18 72 46 91-17 0-33-5-47-13 0 0 0 1 0 1 0 53 36 97 84 107-9 3-18 4-28 4-7 0-13-1-20-2 14 44 53 75 99 76-36 29-82 47-131 47-8 0-17-1-25-2 47 32 102 50 161 50 193 0 299-167 299-312 0-4 0-9-1-14 21-15 39-34 53-56z"/>
    </symbol>
  
    <symbol id="icon-cv" viewBox="0 0 512 512">
      <path d="m384 192c-53 0-96 43-96 96c0 28 13 53 32 71l0 153l64-64l64 64l0-153c20-18 32-43 32-71c0-53-43-96-96-96m0 160c-35 0-64-29-64-64c0-35 29-64 64-64c35 0 64 29 64 64c0 35-29 64-64 64m-170 96l-150 0l0-384l179 0l96 96l77 0l0-13l-147-147l-269 0l0 512l275 0l-60-63z m-118-288l160 0l0 32l-160 0z m0 64l160 0l0 32l-160 0z m0 64l160 0l0 32l-160 0z"/>
    </symbol>
  
</svg>
